<?xml version="1.0" encoding="UTF-8"?>
<svg xmlns="http://www.w3.org/2000/svg" xmlns:xlink="http://www.w3.org/1999/xlink" width="60pt" height="140pt" viewBox="0 0 120 128" version="1.1">
<defs>
<linearGradient id="linear0" gradientUnits="userSpaceOnUse" x1="44.115" y1="148.384" x2="148.894" y2="43.605" gradientTransform="matrix(0.666667,0,0,0.666667,0,0)">
<stop offset="0" style="stop-color:rgb(20.392157%,80.392157%,98.039216%);stop-opacity:1;"/>
<stop offset="1" style="stop-color:rgb(90.980392%,85.098039%,94.509804%);stop-opacity:1;"/>
</linearGradient>
</defs>
<g id="surface1">
<path style=" stroke:none;fill-rule:nonzero;fill:url(#linear0);" d="M 103.40625 49.351562 C 102.933594 48.515625 102.046875 48 101.085938 48 L 66.152344 48 L 72.007812 3.25 C 72.140625 2.019531 71.40625 0.859375 70.238281 0.445312 C 69.070312 0.03125 67.769531 0.46875 67.09375 1.507812 L 24.613281 75.9375 C 24.105469 76.757812 24.085938 77.792969 24.554688 78.632812 C 25.027344 79.476562 25.917969 80 26.882812 80 L 61.292969 80 L 56.652344 124.816406 C 56.558594 126.042969 57.3125 127.179688 58.480469 127.566406 C 59.652344 127.953125 60.933594 127.496094 61.59375 126.457031 L 103.375 52.035156 C 103.867188 51.210938 103.878906 50.1875 103.40625 49.351562 Z M 103.40625 49.351562 "/>
</g>
</svg>
