<?xml version="1.0" encoding="UTF-8"?>
<svg width="70pt" height="150pt"
	 viewBox="0 0 512 512" xmlns="http://www.w3.org/2000/svg">
<path d="m511.914062 256c0-141.386719-114.59375-256-255.957031-256-141.359375 0-255.957031 114.613281-255.957031 256s114.597656 256 255.957031 256c141.363281 0 255.957031-114.613281 255.957031-256zm0 0" fill="#407fff"/>
<path d="m408.9375 50.738281c31.867188 42.683594 50.734375 95.640625 50.734375 153.007813 0 141.382812-114.597656 256-255.960937 256-57.355469 0-110.304688-18.871094-152.980469-50.738282 46.667969 62.515626 121.222656 102.992188 205.226562 102.992188 141.363281 0 255.957031-114.613281 255.957031-256 0-84.019531-40.46875-158.585938-102.976562-205.261719zm0 0" fill="#406aef"/>
<path d="m247.695312 298.144531 11.957032 11.960938h-57.527344c-11.761719 0-21.296875 9.535156-21.296875 21.300781 0 11.761719 9.535156 21.300781 21.296875 21.300781h58.054688l-11.910157 11.914063c-8.316406 8.316406-8.316406 21.804687 0 30.121094 8.316407 8.320312 21.800781 8.320312 30.117188 0l32.945312-32.949219 12.429688-12.429688c9.769531-9.773437 9.769531-25.613281 0-35.386719l-12.429688-12.429687-33.519531-33.527344c-8.289062-8.292969-21.734375-8.292969-30.027344 0l-.089844.09375c-8.292968 8.292969-8.292968 21.738281 0 30.03125zm0 0" fill="#e3faff"/>
<path d="m323.761719 313.976562-12.429688-12.429687-33.519531-33.527344c-7.101562-7.105469-17.980469-8.101562-26.167969-3.03125 1.371094.847657 2.671875 1.847657 3.859375 3.03125l33.519532 33.527344 12.429687 12.429687c9.769531 9.769532 9.769531 25.613282 0 35.382813l-12.429687 12.433594-32.945313 32.949219c-1.199219 1.203124-2.519531 2.210937-3.902344 3.0625 8.207031 5.0625 19.097657 4.054687 26.214844-3.0625l32.945313-32.949219 12.425781-12.433594c9.769531-9.769531 9.769531-25.613281 0-35.382813zm0 0" fill="#ccf4ff"/>
<path d="m264.222656 147.359375-11.960937 11.960937h57.53125c11.761719 0 21.296875 9.535157 21.296875 21.300782s-9.535156 21.300781-21.296875 21.300781h-58.058594l11.914063 11.914063c8.316406 8.316406 8.316406 21.804687 0 30.125-8.320313 8.316406-21.804688 8.316406-30.121094 0l-32.945313-32.953126-12.429687-12.429687c-9.769532-9.773437-9.769532-25.613281 0-35.386719l12.429687-12.429687 33.519531-33.527344c8.292969-8.292969 21.738282-8.292969 30.027344 0l.09375.09375c8.289063 8.292969 8.289063 21.738281 0 30.03125zm0 0" fill="#e3faff"/>
<g fill="#ccf4ff">
<path d="m251.734375 201.921875h-18.085937l11.910156 11.914063c8.320312 8.320312 8.320312 21.804687 0 30.125-1.792969 1.796874-3.839844 3.179687-6.015625 4.199218 7.894531 3.707032 17.582031 2.320313 24.105469-4.199218 8.316406-8.320313 8.316406-21.808594 0-30.125zm0 0"/>
<path d="m246.042969 117.238281.089843.089844c8.292969 8.292969 8.292969 21.738281 0 30.03125l-11.957031 11.960937h18.085938l11.960937-11.960937c8.289063-8.292969 8.289063-21.738281 0-30.03125l-.09375-.089844c-6.507812-6.511719-16.183594-7.886719-24.058594-4.175781 2.160157 1.015625 4.1875 2.390625 5.972657 4.175781zm0 0"/>
<path d="m309.792969 159.320312h-18.089844c11.765625 0 21.300781 9.535157 21.300781 21.300782s-9.535156 21.300781-21.300781 21.300781h18.089844c11.761719 0 21.296875-9.535156 21.296875-21.300781s-9.535156-21.300782-21.296875-21.300782zm0 0"/>
</g>
</svg>