<?xml version="1.0" encoding="UTF-8"?>
<svg xmlns="http://www.w3.org/2000/svg" xmlns:xlink="http://www.w3.org/1999/xlink" width="55pt" height="120pt" viewBox="0 0 200 100" version="1.1">
<g id="surface1">
<path style=" stroke:none;fill-rule:nonzero;fill:rgb(14.117647%,68.235294%,37.254902%);fill-opacity:1;" d="M 172.136719 0 L 172.136719 256 L 66.207031 256 C 61.335938 255.984375 57.394531 252.042969 57.378906 247.171875 L 57.378906 8.828125 C 57.394531 3.957031 61.335938 0.015625 66.207031 0 Z M 172.136719 0 "/>
<path style=" stroke:none;fill-rule:nonzero;fill:rgb(30.980392%,72.941176%,43.529412%);fill-opacity:1;" d="M 198.621094 225.101562 L 198.621094 247.171875 C 198.605469 252.042969 194.664062 255.984375 189.792969 256 L 163.308594 256 L 163.308594 225.101562 Z M 198.621094 225.101562 "/>
<path style=" stroke:none;fill-rule:nonzero;fill:rgb(44.313725%,76.078431%,52.156863%);fill-opacity:1;" d="M 163.308594 207.449219 L 198.621094 207.449219 L 198.621094 225.101562 L 163.308594 225.101562 Z M 163.308594 207.449219 "/>
<path style=" stroke:none;fill-rule:nonzero;fill:rgb(30.980392%,72.941176%,43.529412%);fill-opacity:1;" d="M 163.308594 189.792969 L 198.621094 189.792969 L 198.621094 207.449219 L 163.308594 207.449219 Z M 163.308594 189.792969 "/>
<path style=" stroke:none;fill-rule:nonzero;fill:rgb(44.313725%,76.078431%,52.156863%);fill-opacity:1;" d="M 180.964844 163.308594 C 181 168.171875 184.933594 172.101562 189.792969 172.136719 L 194.207031 172.136719 C 196.644531 172.136719 198.621094 174.113281 198.621094 176.550781 L 198.621094 189.792969 L 163.308594 189.792969 L 163.308594 136.828125 L 198.621094 136.828125 L 198.621094 150.070312 C 198.621094 152.507812 196.644531 154.484375 194.207031 154.484375 L 189.792969 154.484375 C 184.921875 154.496094 180.980469 158.441406 180.964844 163.308594 Z M 180.964844 163.308594 "/>
<path style=" stroke:none;fill-rule:nonzero;fill:rgb(30.980392%,72.941176%,43.529412%);fill-opacity:1;" d="M 163.308594 119.171875 L 198.621094 119.171875 L 198.621094 136.828125 L 163.308594 136.828125 Z M 163.308594 119.171875 "/>
<path style=" stroke:none;fill-rule:nonzero;fill:rgb(44.313725%,76.078431%,52.156863%);fill-opacity:1;" d="M 163.308594 101.515625 L 198.621094 101.515625 L 198.621094 119.171875 L 163.308594 119.171875 Z M 163.308594 101.515625 "/>
<path style=" stroke:none;fill-rule:nonzero;fill:rgb(30.980392%,72.941176%,43.529412%);fill-opacity:1;" d="M 163.308594 83.863281 L 198.621094 83.863281 L 198.621094 101.515625 L 163.308594 101.515625 Z M 163.308594 83.863281 "/>
<path style=" stroke:none;fill-rule:nonzero;fill:rgb(44.313725%,76.078431%,52.156863%);fill-opacity:1;" d="M 163.308594 66.207031 L 198.621094 66.207031 L 198.621094 83.863281 L 163.308594 83.863281 Z M 163.308594 66.207031 "/>
<path style=" stroke:none;fill-rule:nonzero;fill:rgb(30.980392%,72.941176%,43.529412%);fill-opacity:1;" d="M 163.308594 48.550781 L 198.621094 48.550781 L 198.621094 66.207031 L 163.308594 66.207031 Z M 163.308594 48.550781 "/>
<path style=" stroke:none;fill-rule:nonzero;fill:rgb(44.313725%,76.078431%,52.156863%);fill-opacity:1;" d="M 163.308594 30.898438 L 198.621094 30.898438 L 198.621094 48.550781 L 163.308594 48.550781 Z M 163.308594 30.898438 "/>
<path style=" stroke:none;fill-rule:nonzero;fill:rgb(30.980392%,72.941176%,43.529412%);fill-opacity:1;" d="M 198.621094 8.828125 L 198.621094 30.898438 L 163.308594 30.898438 L 163.308594 0 L 189.792969 0 C 194.664062 0.015625 198.605469 3.957031 198.621094 8.828125 Z M 198.621094 8.828125 "/>
<path style=" stroke:none;fill-rule:nonzero;fill:rgb(29.803922%,50.196078%,33.72549%);fill-opacity:1;" d="M 185.378906 242.757812 C 185.378906 245.195312 183.402344 247.171875 180.964844 247.171875 C 178.527344 247.171875 176.550781 245.195312 176.550781 242.757812 C 176.550781 240.320312 178.527344 238.34375 180.964844 238.34375 C 183.402344 238.34375 185.378906 240.320312 185.378906 242.757812 Z M 185.378906 242.757812 "/>
<path style=" stroke:none;fill-rule:nonzero;fill:rgb(29.803922%,50.196078%,33.72549%);fill-opacity:1;" d="M 185.378906 13.242188 C 185.378906 15.679688 183.402344 17.65625 180.964844 17.65625 C 178.527344 17.65625 176.550781 15.679688 176.550781 13.242188 C 176.550781 10.804688 178.527344 8.828125 180.964844 8.828125 C 183.402344 8.828125 185.378906 10.804688 185.378906 13.242188 Z M 185.378906 13.242188 "/>
<path style=" stroke:none;fill-rule:nonzero;fill:rgb(95.294118%,83.529412%,35.686275%);fill-opacity:1;" d="M 83.863281 22.070312 C 81.425781 22.070312 79.449219 20.09375 79.449219 17.65625 L 79.449219 13.242188 C 79.449219 10.804688 81.425781 8.828125 83.863281 8.828125 C 86.300781 8.828125 88.277344 10.804688 88.277344 13.242188 L 88.277344 17.65625 C 88.277344 20.09375 86.300781 22.070312 83.863281 22.070312 Z M 83.863281 22.070312 "/>
<path style=" stroke:none;fill-rule:nonzero;fill:rgb(95.294118%,83.529412%,35.686275%);fill-opacity:1;" d="M 83.863281 61.792969 C 81.425781 61.792969 79.449219 59.816406 79.449219 57.378906 L 79.449219 52.964844 C 79.449219 50.527344 81.425781 48.550781 83.863281 48.550781 C 86.300781 48.550781 88.277344 50.527344 88.277344 52.964844 L 88.277344 57.378906 C 88.277344 59.816406 86.300781 61.792969 83.863281 61.792969 Z M 83.863281 61.792969 "/>
<path style=" stroke:none;fill-rule:nonzero;fill:rgb(95.294118%,83.529412%,35.686275%);fill-opacity:1;" d="M 101.515625 22.070312 C 99.078125 22.070312 97.101562 20.09375 97.101562 17.65625 L 97.101562 13.242188 C 97.101562 10.804688 99.078125 8.828125 101.515625 8.828125 C 103.953125 8.828125 105.929688 10.804688 105.929688 13.242188 L 105.929688 17.65625 C 105.929688 20.09375 103.953125 22.070312 101.515625 22.070312 Z M 101.515625 22.070312 "/>
<path style=" stroke:none;fill-rule:nonzero;fill:rgb(95.294118%,83.529412%,35.686275%);fill-opacity:1;" d="M 101.515625 61.792969 C 99.078125 61.792969 97.101562 59.816406 97.101562 57.378906 L 97.101562 52.964844 C 97.101562 50.527344 99.078125 48.550781 101.515625 48.550781 C 103.953125 48.550781 105.929688 50.527344 105.929688 52.964844 L 105.929688 57.378906 C 105.929688 59.816406 103.953125 61.792969 101.515625 61.792969 Z M 101.515625 61.792969 "/>
<path style=" stroke:none;fill-rule:nonzero;fill:rgb(95.294118%,83.529412%,35.686275%);fill-opacity:1;" d="M 119.171875 22.070312 C 116.734375 22.070312 114.757812 20.09375 114.757812 17.65625 L 114.757812 13.242188 C 114.757812 10.804688 116.734375 8.828125 119.171875 8.828125 C 121.609375 8.828125 123.585938 10.804688 123.585938 13.242188 L 123.585938 17.65625 C 123.585938 20.09375 121.609375 22.070312 119.171875 22.070312 Z M 119.171875 22.070312 "/>
<path style=" stroke:none;fill-rule:nonzero;fill:rgb(95.294118%,83.529412%,35.686275%);fill-opacity:1;" d="M 119.171875 61.792969 C 116.734375 61.792969 114.757812 59.816406 114.757812 57.378906 L 114.757812 52.964844 C 114.757812 50.527344 116.734375 48.550781 119.171875 48.550781 C 121.609375 48.550781 123.585938 50.527344 123.585938 52.964844 L 123.585938 57.378906 C 123.585938 59.816406 121.609375 61.792969 119.171875 61.792969 Z M 119.171875 61.792969 "/>
<path style=" stroke:none;fill-rule:nonzero;fill:rgb(95.294118%,83.529412%,35.686275%);fill-opacity:1;" d="M 136.828125 22.070312 C 134.390625 22.070312 132.414062 20.09375 132.414062 17.65625 L 132.414062 13.242188 C 132.414062 10.804688 134.390625 8.828125 136.828125 8.828125 C 139.265625 8.828125 141.242188 10.804688 141.242188 13.242188 L 141.242188 17.65625 C 141.242188 20.09375 139.265625 22.070312 136.828125 22.070312 Z M 136.828125 22.070312 "/>
<path style=" stroke:none;fill-rule:nonzero;fill:rgb(95.294118%,83.529412%,35.686275%);fill-opacity:1;" d="M 136.828125 61.792969 C 134.390625 61.792969 132.414062 59.816406 132.414062 57.378906 L 132.414062 52.964844 C 132.414062 50.527344 134.390625 48.550781 136.828125 48.550781 C 139.265625 48.550781 141.242188 50.527344 141.242188 52.964844 L 141.242188 57.378906 C 141.242188 59.816406 139.265625 61.792969 136.828125 61.792969 Z M 136.828125 61.792969 "/>
<path style=" stroke:none;fill-rule:nonzero;fill:rgb(20.784314%,28.627451%,36.862745%);fill-opacity:1;" d="M 79.449219 17.65625 L 141.242188 17.65625 C 143.679688 17.65625 145.65625 19.632812 145.65625 22.070312 L 145.65625 48.550781 C 145.65625 50.988281 143.679688 52.964844 141.242188 52.964844 L 79.449219 52.964844 C 77.011719 52.964844 75.035156 50.988281 75.035156 48.550781 L 75.035156 22.070312 C 75.035156 19.632812 77.011719 17.65625 79.449219 17.65625 Z M 79.449219 17.65625 "/>
<path style=" stroke:none;fill-rule:nonzero;fill:rgb(24.705882%,36.078431%,42.352941%);fill-opacity:1;" d="M 132.414062 17.65625 C 132.414062 17.65625 88.539062 25.644531 84.214844 52.964844 L 79.449219 52.964844 C 77.011719 52.964844 75.035156 50.988281 75.035156 48.550781 L 75.035156 22.070312 C 75.035156 19.632812 77.011719 17.65625 79.449219 17.65625 Z M 132.414062 17.65625 "/>
<path style=" stroke:none;fill-rule:nonzero;fill:rgb(95.294118%,83.529412%,35.686275%);fill-opacity:1;" d="M 83.863281 83.863281 C 81.425781 83.863281 79.449219 81.886719 79.449219 79.449219 L 79.449219 75.035156 C 79.449219 72.597656 81.425781 70.621094 83.863281 70.621094 C 86.300781 70.621094 88.277344 72.597656 88.277344 75.035156 L 88.277344 79.449219 C 88.277344 81.886719 86.300781 83.863281 83.863281 83.863281 Z M 83.863281 83.863281 "/>
<path style=" stroke:none;fill-rule:nonzero;fill:rgb(95.294118%,83.529412%,35.686275%);fill-opacity:1;" d="M 83.863281 123.585938 C 81.425781 123.585938 79.449219 121.609375 79.449219 119.171875 L 79.449219 114.757812 C 79.449219 112.320312 81.425781 110.34375 83.863281 110.34375 C 86.300781 110.34375 88.277344 112.320312 88.277344 114.757812 L 88.277344 119.171875 C 88.277344 121.609375 86.300781 123.585938 83.863281 123.585938 Z M 83.863281 123.585938 "/>
<path style=" stroke:none;fill-rule:nonzero;fill:rgb(95.294118%,83.529412%,35.686275%);fill-opacity:1;" d="M 101.515625 83.863281 C 99.078125 83.863281 97.101562 81.886719 97.101562 79.449219 L 97.101562 75.035156 C 97.101562 72.597656 99.078125 70.621094 101.515625 70.621094 C 103.953125 70.621094 105.929688 72.597656 105.929688 75.035156 L 105.929688 79.449219 C 105.929688 81.886719 103.953125 83.863281 101.515625 83.863281 Z M 101.515625 83.863281 "/>
<path style=" stroke:none;fill-rule:nonzero;fill:rgb(95.294118%,83.529412%,35.686275%);fill-opacity:1;" d="M 101.515625 123.585938 C 99.078125 123.585938 97.101562 121.609375 97.101562 119.171875 L 97.101562 114.757812 C 97.101562 112.320312 99.078125 110.34375 101.515625 110.34375 C 103.953125 110.34375 105.929688 112.320312 105.929688 114.757812 L 105.929688 119.171875 C 105.929688 121.609375 103.953125 123.585938 101.515625 123.585938 Z M 101.515625 123.585938 "/>
<path style=" stroke:none;fill-rule:nonzero;fill:rgb(95.294118%,83.529412%,35.686275%);fill-opacity:1;" d="M 119.171875 83.863281 C 116.734375 83.863281 114.757812 81.886719 114.757812 79.449219 L 114.757812 75.035156 C 114.757812 72.597656 116.734375 70.621094 119.171875 70.621094 C 121.609375 70.621094 123.585938 72.597656 123.585938 75.035156 L 123.585938 79.449219 C 123.585938 81.886719 121.609375 83.863281 119.171875 83.863281 Z M 119.171875 83.863281 "/>
<path style=" stroke:none;fill-rule:nonzero;fill:rgb(95.294118%,83.529412%,35.686275%);fill-opacity:1;" d="M 119.171875 123.585938 C 116.734375 123.585938 114.757812 121.609375 114.757812 119.171875 L 114.757812 114.757812 C 114.757812 112.320312 116.734375 110.34375 119.171875 110.34375 C 121.609375 110.34375 123.585938 112.320312 123.585938 114.757812 L 123.585938 119.171875 C 123.585938 121.609375 121.609375 123.585938 119.171875 123.585938 Z M 119.171875 123.585938 "/>
<path style=" stroke:none;fill-rule:nonzero;fill:rgb(95.294118%,83.529412%,35.686275%);fill-opacity:1;" d="M 136.828125 83.863281 C 134.390625 83.863281 132.414062 81.886719 132.414062 79.449219 L 132.414062 75.035156 C 132.414062 72.597656 134.390625 70.621094 136.828125 70.621094 C 139.265625 70.621094 141.242188 72.597656 141.242188 75.035156 L 141.242188 79.449219 C 141.242188 81.886719 139.265625 83.863281 136.828125 83.863281 Z M 136.828125 83.863281 "/>
<path style=" stroke:none;fill-rule:nonzero;fill:rgb(95.294118%,83.529412%,35.686275%);fill-opacity:1;" d="M 136.828125 123.585938 C 134.390625 123.585938 132.414062 121.609375 132.414062 119.171875 L 132.414062 114.757812 C 132.414062 112.320312 134.390625 110.34375 136.828125 110.34375 C 139.265625 110.34375 141.242188 112.320312 141.242188 114.757812 L 141.242188 119.171875 C 141.242188 121.609375 139.265625 123.585938 136.828125 123.585938 Z M 136.828125 123.585938 "/>
<path style=" stroke:none;fill-rule:nonzero;fill:rgb(20.784314%,28.627451%,36.862745%);fill-opacity:1;" d="M 79.449219 79.449219 L 141.242188 79.449219 C 143.679688 79.449219 145.65625 81.425781 145.65625 83.863281 L 145.65625 110.34375 C 145.65625 112.78125 143.679688 114.757812 141.242188 114.757812 L 79.449219 114.757812 C 77.011719 114.757812 75.035156 112.78125 75.035156 110.34375 L 75.035156 83.863281 C 75.035156 81.425781 77.011719 79.449219 79.449219 79.449219 Z M 79.449219 79.449219 "/>
<path style=" stroke:none;fill-rule:nonzero;fill:rgb(24.705882%,36.078431%,42.352941%);fill-opacity:1;" d="M 132.414062 79.449219 C 132.414062 79.449219 88.539062 87.4375 84.214844 114.757812 L 79.449219 114.757812 C 77.011719 114.757812 75.035156 112.78125 75.035156 110.34375 L 75.035156 83.863281 C 75.035156 81.425781 77.011719 79.449219 79.449219 79.449219 Z M 132.414062 79.449219 "/>
<path style=" stroke:none;fill-rule:nonzero;fill:rgb(95.294118%,83.529412%,35.686275%);fill-opacity:1;" d="M 83.863281 145.65625 C 81.425781 145.65625 79.449219 143.679688 79.449219 141.242188 L 79.449219 136.828125 C 79.449219 134.390625 81.425781 132.414062 83.863281 132.414062 C 86.300781 132.414062 88.277344 134.390625 88.277344 136.828125 L 88.277344 141.242188 C 88.277344 143.679688 86.300781 145.65625 83.863281 145.65625 Z M 83.863281 145.65625 "/>
<path style=" stroke:none;fill-rule:nonzero;fill:rgb(95.294118%,83.529412%,35.686275%);fill-opacity:1;" d="M 83.863281 185.378906 C 81.425781 185.378906 79.449219 183.402344 79.449219 180.964844 L 79.449219 176.550781 C 79.449219 174.113281 81.425781 172.136719 83.863281 172.136719 C 86.300781 172.136719 88.277344 174.113281 88.277344 176.550781 L 88.277344 180.964844 C 88.277344 183.402344 86.300781 185.378906 83.863281 185.378906 Z M 83.863281 185.378906 "/>
<path style=" stroke:none;fill-rule:nonzero;fill:rgb(95.294118%,83.529412%,35.686275%);fill-opacity:1;" d="M 101.515625 145.65625 C 99.078125 145.65625 97.101562 143.679688 97.101562 141.242188 L 97.101562 136.828125 C 97.101562 134.390625 99.078125 132.414062 101.515625 132.414062 C 103.953125 132.414062 105.929688 134.390625 105.929688 136.828125 L 105.929688 141.242188 C 105.929688 143.679688 103.953125 145.65625 101.515625 145.65625 Z M 101.515625 145.65625 "/>
<path style=" stroke:none;fill-rule:nonzero;fill:rgb(95.294118%,83.529412%,35.686275%);fill-opacity:1;" d="M 101.515625 185.378906 C 99.078125 185.378906 97.101562 183.402344 97.101562 180.964844 L 97.101562 176.550781 C 97.101562 174.113281 99.078125 172.136719 101.515625 172.136719 C 103.953125 172.136719 105.929688 174.113281 105.929688 176.550781 L 105.929688 180.964844 C 105.929688 183.402344 103.953125 185.378906 101.515625 185.378906 Z M 101.515625 185.378906 "/>
<path style=" stroke:none;fill-rule:nonzero;fill:rgb(95.294118%,83.529412%,35.686275%);fill-opacity:1;" d="M 119.171875 145.65625 C 116.734375 145.65625 114.757812 143.679688 114.757812 141.242188 L 114.757812 136.828125 C 114.757812 134.390625 116.734375 132.414062 119.171875 132.414062 C 121.609375 132.414062 123.585938 134.390625 123.585938 136.828125 L 123.585938 141.242188 C 123.585938 143.679688 121.609375 145.65625 119.171875 145.65625 Z M 119.171875 145.65625 "/>
<path style=" stroke:none;fill-rule:nonzero;fill:rgb(95.294118%,83.529412%,35.686275%);fill-opacity:1;" d="M 119.171875 185.378906 C 116.734375 185.378906 114.757812 183.402344 114.757812 180.964844 L 114.757812 176.550781 C 114.757812 174.113281 116.734375 172.136719 119.171875 172.136719 C 121.609375 172.136719 123.585938 174.113281 123.585938 176.550781 L 123.585938 180.964844 C 123.585938 183.402344 121.609375 185.378906 119.171875 185.378906 Z M 119.171875 185.378906 "/>
<path style=" stroke:none;fill-rule:nonzero;fill:rgb(95.294118%,83.529412%,35.686275%);fill-opacity:1;" d="M 136.828125 145.65625 C 134.390625 145.65625 132.414062 143.679688 132.414062 141.242188 L 132.414062 136.828125 C 132.414062 134.390625 134.390625 132.414062 136.828125 132.414062 C 139.265625 132.414062 141.242188 134.390625 141.242188 136.828125 L 141.242188 141.242188 C 141.242188 143.679688 139.265625 145.65625 136.828125 145.65625 Z M 136.828125 145.65625 "/>
<path style=" stroke:none;fill-rule:nonzero;fill:rgb(95.294118%,83.529412%,35.686275%);fill-opacity:1;" d="M 136.828125 185.378906 C 134.390625 185.378906 132.414062 183.402344 132.414062 180.964844 L 132.414062 176.550781 C 132.414062 174.113281 134.390625 172.136719 136.828125 172.136719 C 139.265625 172.136719 141.242188 174.113281 141.242188 176.550781 L 141.242188 180.964844 C 141.242188 183.402344 139.265625 185.378906 136.828125 185.378906 Z M 136.828125 185.378906 "/>
<path style=" stroke:none;fill-rule:nonzero;fill:rgb(20.784314%,28.627451%,36.862745%);fill-opacity:1;" d="M 79.449219 141.242188 L 141.242188 141.242188 C 143.679688 141.242188 145.65625 143.21875 145.65625 145.65625 L 145.65625 172.136719 C 145.65625 174.574219 143.679688 176.550781 141.242188 176.550781 L 79.449219 176.550781 C 77.011719 176.550781 75.035156 174.574219 75.035156 172.136719 L 75.035156 145.65625 C 75.035156 143.21875 77.011719 141.242188 79.449219 141.242188 Z M 79.449219 141.242188 "/>
<path style=" stroke:none;fill-rule:nonzero;fill:rgb(24.705882%,36.078431%,42.352941%);fill-opacity:1;" d="M 132.414062 141.242188 C 132.414062 141.242188 88.539062 149.230469 84.214844 176.550781 L 79.449219 176.550781 C 77.011719 176.550781 75.035156 174.574219 75.035156 172.136719 L 75.035156 145.65625 C 75.035156 143.21875 77.011719 141.242188 79.449219 141.242188 Z M 132.414062 141.242188 "/>
<path style=" stroke:none;fill-rule:nonzero;fill:rgb(95.294118%,83.529412%,35.686275%);fill-opacity:1;" d="M 83.863281 207.449219 C 81.425781 207.449219 79.449219 205.472656 79.449219 203.035156 L 79.449219 198.621094 C 79.449219 196.183594 81.425781 194.207031 83.863281 194.207031 C 86.300781 194.207031 88.277344 196.183594 88.277344 198.621094 L 88.277344 203.035156 C 88.277344 205.472656 86.300781 207.449219 83.863281 207.449219 Z M 83.863281 207.449219 "/>
<path style=" stroke:none;fill-rule:nonzero;fill:rgb(95.294118%,83.529412%,35.686275%);fill-opacity:1;" d="M 83.863281 247.171875 C 81.425781 247.171875 79.449219 245.195312 79.449219 242.757812 L 79.449219 238.34375 C 79.449219 235.90625 81.425781 233.929688 83.863281 233.929688 C 86.300781 233.929688 88.277344 235.90625 88.277344 238.34375 L 88.277344 242.757812 C 88.277344 245.195312 86.300781 247.171875 83.863281 247.171875 Z M 83.863281 247.171875 "/>
<path style=" stroke:none;fill-rule:nonzero;fill:rgb(95.294118%,83.529412%,35.686275%);fill-opacity:1;" d="M 101.515625 207.449219 C 99.078125 207.449219 97.101562 205.472656 97.101562 203.035156 L 97.101562 198.621094 C 97.101562 196.183594 99.078125 194.207031 101.515625 194.207031 C 103.953125 194.207031 105.929688 196.183594 105.929688 198.621094 L 105.929688 203.035156 C 105.929688 205.472656 103.953125 207.449219 101.515625 207.449219 Z M 101.515625 207.449219 "/>
<path style=" stroke:none;fill-rule:nonzero;fill:rgb(95.294118%,83.529412%,35.686275%);fill-opacity:1;" d="M 101.515625 247.171875 C 99.078125 247.171875 97.101562 245.195312 97.101562 242.757812 L 97.101562 238.34375 C 97.101562 235.90625 99.078125 233.929688 101.515625 233.929688 C 103.953125 233.929688 105.929688 235.90625 105.929688 238.34375 L 105.929688 242.757812 C 105.929688 245.195312 103.953125 247.171875 101.515625 247.171875 Z M 101.515625 247.171875 "/>
<path style=" stroke:none;fill-rule:nonzero;fill:rgb(95.294118%,83.529412%,35.686275%);fill-opacity:1;" d="M 119.171875 207.449219 C 116.734375 207.449219 114.757812 205.472656 114.757812 203.035156 L 114.757812 198.621094 C 114.757812 196.183594 116.734375 194.207031 119.171875 194.207031 C 121.609375 194.207031 123.585938 196.183594 123.585938 198.621094 L 123.585938 203.035156 C 123.585938 205.472656 121.609375 207.449219 119.171875 207.449219 Z M 119.171875 207.449219 "/>
<path style=" stroke:none;fill-rule:nonzero;fill:rgb(95.294118%,83.529412%,35.686275%);fill-opacity:1;" d="M 119.171875 247.171875 C 116.734375 247.171875 114.757812 245.195312 114.757812 242.757812 L 114.757812 238.34375 C 114.757812 235.90625 116.734375 233.929688 119.171875 233.929688 C 121.609375 233.929688 123.585938 235.90625 123.585938 238.34375 L 123.585938 242.757812 C 123.585938 245.195312 121.609375 247.171875 119.171875 247.171875 Z M 119.171875 247.171875 "/>
<path style=" stroke:none;fill-rule:nonzero;fill:rgb(95.294118%,83.529412%,35.686275%);fill-opacity:1;" d="M 136.828125 207.449219 C 134.390625 207.449219 132.414062 205.472656 132.414062 203.035156 L 132.414062 198.621094 C 132.414062 196.183594 134.390625 194.207031 136.828125 194.207031 C 139.265625 194.207031 141.242188 196.183594 141.242188 198.621094 L 141.242188 203.035156 C 141.242188 205.472656 139.265625 207.449219 136.828125 207.449219 Z M 136.828125 207.449219 "/>
<path style=" stroke:none;fill-rule:nonzero;fill:rgb(95.294118%,83.529412%,35.686275%);fill-opacity:1;" d="M 136.828125 247.171875 C 134.390625 247.171875 132.414062 245.195312 132.414062 242.757812 L 132.414062 238.34375 C 132.414062 235.90625 134.390625 233.929688 136.828125 233.929688 C 139.265625 233.929688 141.242188 235.90625 141.242188 238.34375 L 141.242188 242.757812 C 141.242188 245.195312 139.265625 247.171875 136.828125 247.171875 Z M 136.828125 247.171875 "/>
<path style=" stroke:none;fill-rule:nonzero;fill:rgb(20.784314%,28.627451%,36.862745%);fill-opacity:1;" d="M 79.449219 203.035156 L 141.242188 203.035156 C 143.679688 203.035156 145.65625 205.011719 145.65625 207.449219 L 145.65625 233.929688 C 145.65625 236.367188 143.679688 238.34375 141.242188 238.34375 L 79.449219 238.34375 C 77.011719 238.34375 75.035156 236.367188 75.035156 233.929688 L 75.035156 207.449219 C 75.035156 205.011719 77.011719 203.035156 79.449219 203.035156 Z M 79.449219 203.035156 "/>
<path style=" stroke:none;fill-rule:nonzero;fill:rgb(24.705882%,36.078431%,42.352941%);fill-opacity:1;" d="M 132.414062 203.035156 C 132.414062 203.035156 88.539062 211.023438 84.214844 238.34375 L 79.449219 238.34375 C 77.011719 238.34375 75.035156 236.367188 75.035156 233.929688 L 75.035156 207.449219 C 75.035156 205.011719 77.011719 203.035156 79.449219 203.035156 Z M 132.414062 203.035156 "/>
</g>
</svg>
